<svg version="1.1" id="svg2" xml:space="preserve" sodipodi:docname="13-02.eps" xmlns:inkscape="http://www.inkscape.org/namespaces/inkscape" xmlns:sodipodi="http://sodipodi.sourceforge.net/DTD/sodipodi-0.dtd" xmlns="http://www.w3.org/2000/svg" xmlns:svg="http://www.w3.org/2000/svg" width="1000.3333" viewBox="0 0 1000.3333 466.6667" height="466.6667"><defs id="defs6"/><sodipodi:namedview id="namedview4" pagecolor="#ffffff" bordercolor="#666666" borderopacity="1.0" inkscape:pageshadow="2" inkscape:pageopacity="0.0" inkscape:pagecheckerboard="0"/><g id="g8" inkscape:groupmode="layer" inkscape:label="ink_ext_XXXXXX" transform="matrix(1.0003333,0,0,-1.0003333,0,666.6667)"><g id="g10" transform="scale(0.1)"><path d="m 6944.82,5362.93 -682.14,-402.75 c 0,0 -272.13,83.45 -457.18,-36.29 -185.05,-119.73 -291.48,-457.17 58.06,-823.64 0,0 25.4,290.27 380.98,362.84 l 166.9,395.49 533.38,504.35" id="path12" style="fill:#fec514;fill-opacity:1;fill-rule:nonzero;stroke:none"/><path d="m 6255.42,4376.01 c 0,0 -216.56,1.48 -359.21,-359.21 -263.56,-666.42 -1123.59,-787.36 -1123.59,-787.36 0,0 802.48,-62.9 1152.62,348.32 302.09,354.79 330.18,798.25 330.18,798.25" id="path14" style="fill:#f04e98;fill-opacity:1;fill-rule:nonzero;stroke:none"/><path d="m 5680.97,3858.36 c 59.87,179.6 27.48,377.58 -87.94,527.65 -68.23,88.72 -157.45,173.06 -267.35,213.22 -286.43,104.65 -1236.62,289.18 -1503.77,696.8 0,0 137.71,-470.96 812.48,-680.28 674.77,-209.32 743.62,-280.92 743.62,-280.92 0,0 -495.75,143.21 -685.78,212.07 -190.04,68.85 -572.87,192.79 -696.81,358.04 0,0 35.81,-333.26 550.83,-506.77 515.03,-173.51 862.06,-223.08 862.06,-223.08 0,0 -851.04,71.6 -1187.05,336 0,0 44.07,-258.89 418.64,-366.3 374.56,-107.41 845.52,-79.87 845.52,-79.87 0,0 -484.73,-85.38 -834.51,27.54 0,0 195.55,-225.84 459.95,-214.82 264.4,11.01 517.28,48.96 570.11,-19.28" id="path16" style="fill:#1ba9f5;fill-opacity:1;fill-rule:nonzero;stroke:none"/><path d="m 4051.12,5334.56 c 0,0 -2.81,-61.9 32.26,-152.3 121.89,-77.89 265.36,-145.27 411.5,-203.74 -174.16,98.43 -374.8,226.88 -443.76,356.04" style="fill:#d1cfd0;fill-opacity:1;fill-rule:nonzero;stroke:none" id="path18"/><path d="m 4638.5,4951.29 c 65.92,-32.16 125.52,-61.82 179.56,-89.22 199.86,-65.85 376.41,-115.77 474.28,-154.26 108.88,-42.83 196.02,-129.33 262.06,-219.68 24.45,-33.44 44.86,-69.08 61.17,-106.22 -9.24,67.87 -30.77,134.39 -64.68,196.11 -53.9,98.09 -129.22,195.05 -231.7,251.5 -267.12,147.12 -1178.04,474.42 -1379.9,918.02 0,0 64.26,-486.46 699.21,-796.25" id="path20" style="fill:#d1cfd0;fill-opacity:1;fill-rule:nonzero;stroke:none"/><path d="m 5051.59,3831.06 c 0,0 -275.9,-142.55 -356.38,-524.22 0,0 681.99,71.89 975.45,450.64 0,0 -121.77,60.75 -274.19,34.49 -213.53,-36.79 -344.88,39.09 -344.88,39.09" id="path22" style="fill:#00bfb3;fill-opacity:1;fill-rule:nonzero;stroke:none"/><path d="m 3055.18,2619.87 c 0,0 239.48,-181.42 638.6,0 399.12,181.42 907.1,606.12 907.1,606.12 0,0 -587.8,-714.97 -1124.8,-802.06 0,0 351.74,-94.33 574.99,65.32 223.25,159.64 593.35,616.82 593.35,616.82 0,0 -355.58,-638.6 -761.96,-834.53 0,0 312.04,-79.82 471.69,87.08 159.65,166.91 480.76,830.9 480.76,830.9 l -1.66,0.44 c -87.24,-9.51 -194.27,19.52 -199.72,164.66 0,0 -976.03,-698.47 -1578.35,-734.75" id="path24" style="fill:#93c90e;fill-opacity:1;fill-rule:nonzero;stroke:none"/></g></g></svg>